HIERARCHY
ROOT Hips
{
	OFFSET 0.00000 0.00000 0.00000
	CHANNELS 6 Xposition Yposition Zposition Zrotation Yrotation Xrotation 
	JOINT LHipJoint
	{
		OFFSET 0 0 0
		CHANNELS 3 Zrotation Yrotation Xrotation
		JOINT LeftUpLeg
		{
			OFFSET 1.37590 -1.78394 0.89329
			CHANNELS 3 Zrotation Yrotation Xrotation
			JOINT LeftLeg
			{
				OFFSET 2.47928 -6.81178 0.00000
				CHANNELS 3 Zrotation Yrotation Xrotation
				JOINT LeftFoot
				{
					OFFSET 2.63345 -7.23535 0.00000
					CHANNELS 3 Zrotation Yrotation Xrotation
					JOINT LeftToeBase
					{
						OFFSET 0.23938 -0.65768 2.27012
						CHANNELS 3 Zrotation Yrotation Xrotation
						End Site
						{
							OFFSET 0.00000 -0.00000 1.18363
						}
					}
				}
			}
		}
	}
	JOINT RHipJoint
	{
		OFFSET 0 0 0
		CHANNELS 3 Zrotation Yrotation Xrotation
		JOINT RightUpLeg
		{
			OFFSET -1.33617 -1.78394 0.89329
			CHANNELS 3 Zrotation Yrotation Xrotation
			JOINT RightLeg
			{
				OFFSET -2.56922 -7.05888 0.00000
				CHANNELS 3 Zrotation Yrotation Xrotation
				JOINT RightFoot
				{
					OFFSET -2.56568 -7.04915 0.00000
					CHANNELS 3 Zrotation Yrotation Xrotation
					JOINT RightToeBase
					{
						OFFSET -0.27533 -0.75646 2.18105
						CHANNELS 3 Zrotation Yrotation Xrotation
						End Site
						{
							OFFSET -0.00000 -0.00000 1.15233
						}
					}
				}
			}
		}
	}
	JOINT LowerBack
	{
		OFFSET 0 0 0
		CHANNELS 3 Zrotation Yrotation Xrotation
		JOINT Spine
		{
			OFFSET 0.06190 2.15152 -0.00935
			CHANNELS 3 Zrotation Yrotation Xrotation
			JOINT Spine1
			{
				OFFSET 0.06334 2.15332 0.00872
				CHANNELS 3 Zrotation Yrotation Xrotation
				JOINT Neck
				{
					OFFSET 0 0 0
					CHANNELS 3 Zrotation Yrotation Xrotation
					JOINT Neck1
					{
						OFFSET -0.04202 1.66908 0.23524
						CHANNELS 3 Zrotation Yrotation Xrotation
						JOINT Head
						{
							OFFSET 0.07510 1.69357 -0.24440
							CHANNELS 3 Zrotation Yrotation Xrotation
							End Site
							{
								OFFSET 0.02556 1.71719 -0.11000
							}
						}
					}
				}
				JOINT LeftShoulder
				{
					OFFSET 0 0 0
					CHANNELS 3 Zrotation Yrotation Xrotation
					JOINT LeftArm
					{
						OFFSET 3.67168 1.26306 -0.41342
						CHANNELS 3 Zrotation Yrotation Xrotation
						JOINT LeftForeArm
						{
							OFFSET 4.68510 -0.00000 -0.00000
							CHANNELS 3 Zrotation Yrotation Xrotation
							JOINT LeftHand
							{
								OFFSET 3.39626 -0.00000 -0.00000
								CHANNELS 3 Zrotation Yrotation Xrotation
								JOINT LeftFingerBase
								{
									OFFSET 0 0 0
									CHANNELS 3 Zrotation Yrotation Xrotation
									JOINT LeftHandIndex1
									{
										OFFSET 0.48608 -0.00000 -0.00000
										CHANNELS 3 Zrotation Yrotation Xrotation
										End Site
										{
											OFFSET 0.39189 -0.00000 -0.00000
										}
									}
								}
								JOINT LThumb
								{
									OFFSET 0 0 0
									CHANNELS 3 Zrotation Yrotation Xrotation
									End Site
									{
										OFFSET 0.39787 -0.00000 0.39787
									}
								}
							}
						}
					}
				}
				JOINT RightShoulder
				{
					OFFSET 0 0 0
					CHANNELS 3 Zrotation Yrotation Xrotation
					JOINT RightArm
					{
						OFFSET -3.04136 1.42992 -0.76390
						CHANNELS 3 Zrotation Yrotation Xrotation
						JOINT RightForeArm
						{
							OFFSET -5.55576 -0.00000 -0.00000
							CHANNELS 3 Zrotation Yrotation Xrotation
							JOINT RightHand
							{
								OFFSET -3.32774 -0.00000 -0.00000
								CHANNELS 3 Zrotation Yrotation Xrotation
								JOINT RightFingerBase
								{
									OFFSET 0 0 0
									CHANNELS 3 Zrotation Yrotation Xrotation
									JOINT RightHandIndex1
									{
										OFFSET -0.50763 -0.00000 -0.00000
										CHANNELS 3 Zrotation Yrotation Xrotation
										End Site
										{
											OFFSET -0.40926 -0.00000 -0.00000
										}
									}
								}
								JOINT RThumb
								{
									OFFSET 0 0 0
									CHANNELS 3 Zrotation Yrotation Xrotation
									End Site
									{
										OFFSET -0.41551 -0.00000 0.41551
									}
								}
							}
						}
					}
				}
			}
		}
	}
}
MOTION
Frames: 7
Frame Time: .0083333
2.0386 18.2936 6.1723 -11.7947 -45.1744 16.9686 0.0000 0.0000 0.0000 1.8504 -21.9627 -17.0041 6.0573 14.4837 45.2114 -0.0378 -4.6797 -1.6662 0.4644 -4.3713 -12.1236 0.0000 0.0000 0.0000 31.8031 -2.0203 -12.1841 -0.9862 -6.3210 17.7187 -0.1561 -8.8853 -15.2000 -0.5557 -4.7749 13.2677 5.3104 2.1797 4.9875 -1.4712 3.2531 -4.0736 -4.8659 1.3055 -6.6943 -14.2204 -11.6111 -12.9120 2.6385 -13.3019 7.0199 1.7937 -6.7507 5.2814 -0.0000 0.0000 0.0000 -75.2015 25.5919 -25.5151 15.1435 -24.3456 -3.2849 -0.0000 -0.0000 17.4616 16.0896 23.9952 6.6900 -7.1250 0.0000 -0.0000 -13.9608 54.2918 -3.2357 -0.0000 0.0000 0.0000 -26.0911 17.7741 -82.0810 -126.6123 54.2737 -91.0975 0.0000 -0.0000 -1.4381 -10.9000 -22.7690 4.2622 7.1250 -0.0000 -0.0000 18.4651 -52.1741 -3.3550
1.9259 18.2959 6.1643 -11.9653 -45.3026 17.1166 0.0000 0.0000 0.0000 1.6536 -21.8497 -17.6218 6.0101 14.4382 45.0224 -0.0214 -4.5478 -2.3227 0.4675 -4.3855 -12.1637 0.0000 0.0000 0.0000 32.2474 -2.1631 -11.7771 -0.9514 -6.2116 17.3997 -0.1681 -8.7731 -15.2412 -0.5708 -4.8384 13.4483 5.3886 2.2747 4.9441 -1.5035 3.3833 -4.1244 -4.9556 1.3637 -6.7022 -14.2124 -11.6787 -12.8428 2.7332 -13.4156 7.1241 1.8085 -6.8031 5.3188 -0.0000 0.0000 0.0000 -75.4455 25.3851 -24.9171 15.2731 -24.5252 -3.3385 -0.0000 -0.0000 17.3540 16.0524 23.7943 6.6217 -7.1250 0.0000 -0.0000 -13.9026 54.0867 -3.1517 -0.0000 0.0000 0.0000 -26.3201 18.1226 -82.7246 -126.1870 54.4222 -90.7518 0.0000 -0.0000 -1.1680 -11.2813 -22.7071 4.4033 7.1250 -0.0000 -0.0000 18.0678 -52.1799 -3.2814
1.8149 18.2977 6.1565 -12.1341 -45.4516 17.2690 0.0000 0.0000 0.0000 1.4377 -21.7207 -18.2319 5.9408 14.3707 44.7437 -0.0035 -4.4378 -2.9748 0.4753 -4.4213 -12.2649 0.0000 0.0000 0.0000 32.6764 -2.2945 -11.3776 -0.9182 -6.1053 17.0902 -0.1800 -8.6546 -15.2756 -0.5854 -4.8987 13.6199 5.4676 2.3789 4.8946 -1.5412 3.5252 -4.1755 -5.0519 1.4277 -6.7046 -14.2090 -11.7484 -12.7743 2.8317 -13.5316 7.2217 1.8249 -6.8563 5.3552 0.0000 -0.0000 0.0000 -75.6870 25.1528 -24.2511 15.4240 -24.7334 -3.4014 -0.0000 -0.0000 17.2574 16.0095 23.5727 6.5458 -7.1250 0.0000 -0.0000 -13.8417 53.8600 -3.0602 0.0000 -0.0000 0.0000 -26.5394 18.5406 -83.2294 -125.6901 54.5925 -90.3473 0.0000 -0.0000 -0.8537 -11.6568 -22.6289 4.5385 7.1250 -0.0000 -0.0000 17.6678 -52.1689 -3.2001
1.7053 18.2989 6.1491 -12.3015 -45.6211 17.4269 0.0000 0.0000 0.0000 1.2041 -21.5771 -18.8329 5.8495 14.2808 44.3745 0.0155 -4.3424 -3.6054 0.4843 -4.4624 -12.3814 0.0000 0.0000 0.0000 33.0901 -2.4183 -10.9888 -0.8869 -6.0032 16.7938 -0.1922 -8.5263 -15.3030 -0.5991 -4.9549 13.7799 5.5479 2.4915 4.8401 -1.5842 3.6779 -4.2277 -5.1550 1.4969 -6.7029 -14.2117 -11.8191 -12.7067 2.9355 -13.6487 7.3128 1.8437 -6.9096 5.3905 0.0000 0.0000 0.0000 -75.9254 24.9004 -23.5167 15.5972 -24.9715 -3.4742 -0.0000 -0.0000 17.1647 15.9722 23.3386 6.4692 -7.1250 0.0000 -0.0000 -13.7704 53.6221 -2.9633 0.0000 0.0000 0.0000 -26.7480 19.0311 -83.5963 -125.1259 54.7816 -89.8869 0.0000 -0.0000 -0.4990 -12.0313 -22.5316 4.6690 7.1250 -0.0000 -0.0000 17.2596 -52.1392 -3.1096
1.5971 18.2997 6.1420 -12.4685 -45.8109 17.5909 0.0000 0.0000 0.0000 0.9548 -21.4205 -19.4239 5.7367 14.1682 43.9156 0.0353 -4.2636 -4.2077 0.4930 -4.5020 -12.4934 0.0000 0.0000 0.0000 33.4893 -2.5314 -10.6089 -0.8575 -5.9053 16.5098 -0.2045 -8.3903 -15.3241 -0.6119 -5.0066 13.9273 5.6292 2.6119 4.7795 -1.6306 3.8406 -4.2799 -5.2625 1.5711 -6.6955 -14.2230 -11.8899 -12.6410 3.0450 -13.7650 7.3945 1.8657 -6.9622 5.4243 -0.0000 0.0000 0.0000 -76.1640 24.6295 -22.7210 15.7932 -25.2394 -3.5573 -0.0000 -0.0000 17.0733 15.9212 23.0830 6.3814 -7.1250 0.0000 -0.0000 -13.7048 53.3603 -2.8603 -0.0000 0.0000 0.0000 -26.9510 19.5902 -83.8289 -124.4836 54.9917 -89.3615 0.0000 -0.0000 -0.1071 -12.4183 -22.4025 4.7970 7.1250 -0.0000 -0.0000 16.8248 -52.0807 -3.0029
1.4902 18.2999 6.1352 -12.6396 -46.0223 17.7642 0.0000 0.0000 0.0000 0.6953 -21.2484 -20.0027 5.6030 14.0323 43.3669 0.0552 -4.2087 -4.7749 0.5011 -4.5379 -12.5952 0.0000 0.0000 0.0000 33.8778 -2.6322 -10.2371 -0.8300 -5.8122 16.2404 -0.2170 -8.2453 -15.3402 -0.6246 -5.0572 14.0717 5.7129 2.7406 4.7127 -1.6804 4.0138 -4.3319 -5.3750 1.6507 -6.6819 -14.2370 -11.9613 -12.5781 3.1560 -13.8814 7.4683 1.8884 -7.0145 5.4564 -0.0000 -0.0000 0.0000 -76.3993 24.3443 -21.8650 16.0120 -25.5369 -3.6511 -0.0000 -0.0000 16.9852 15.8659 22.8100 6.2877 -7.1250 0.0000 -0.0000 -13.6373 53.0804 -2.7515 -0.0000 -0.0000 0.0000 -27.1490 20.2157 -83.9323 -123.7547 55.2234 -88.7636 0.0000 0.0000 0.3213 -12.7967 -22.2637 4.9184 7.1250 -0.0000 -0.0000 16.3944 -52.0107 -2.8940
1.3845 18.2995 6.1287 -12.8089 -46.2531 17.9439 0.0000 0.0000 0.0000 0.4209 -21.0669 -20.5695 5.4499 13.8733 42.7321 0.0750 -4.1736 -5.3006 0.5089 -4.5729 -12.6942 0.0000 0.0000 0.0000 34.2501 -2.7283 -9.8781 -0.8045 -5.7243 15.9866 -0.2300 -8.0859 -15.3496 -0.6361 -5.1030 14.2026 5.7992 2.8758 4.6392 -1.7348 4.1953 -4.3840 -5.4935 1.7343 -6.6621 -14.2568 -12.0316 -12.5178 3.2716 -13.9959 7.5321 1.9137 -7.0655 5.4864 0.0000 -0.0000 0.0000 -76.6322 24.0475 -20.9514 16.2543 -25.8642 -3.7562 -0.0000 -0.0000 16.8944 15.8171 22.5279 6.1946 -7.1250 0.0000 -0.0000 -13.5612 52.7926 -2.6393 0.0000 -0.0000 0.0000 -27.3450 20.9046 -83.9119 -122.9256 55.4786 -88.0816 0.0000 0.0000 0.7858 -13.1684 -22.1150 5.0337 7.1250 -0.0000 -0.0000 15.9667 -51.9293 -2.7829
